
<svg width="297px" height="44px" viewBox="0 0 297 44" version="1.1" xmlns="http://www.w3.org/2000/svg" xmlns:xlink="http://www.w3.org/1999/xlink">
    <g id="Page-1" stroke="none" stroke-width="1" fill="none" fill-rule="evenodd">
        <g id="Artboard-2" transform="translate(-65.000000, -316.000000)">
            <g id="Group-3" transform="translate(65.000000, 316.000000)">
                <path d="M66.360274,30.9534247 C63.0534247,30.9534247 60.0726027,30.0219178 58,28.2054795 L60.9109589,24.7356164 C62.6808219,26.0863014 64.7068493,26.6452055 66.6164384,26.6452055 C67.5945205,26.6452055 68.0136986,26.3890411 68.0136986,25.9465753 L68.0136986,25.9 C68.0136986,25.4342466 67.5013699,25.1780822 65.7547945,24.8287671 C62.0986301,24.0835616 58.8849315,23.0356164 58.8849315,19.5890411 L58.8849315,19.5424658 C58.8849315,16.4452055 61.3068493,14.0465753 65.8013699,14.0465753 C68.9452055,14.0465753 71.2739726,14.7917808 73.160274,16.2821918 L70.5054795,19.9616438 C68.9684932,18.8438356 67.1287671,18.3547945 65.6150685,18.3547945 C64.8,18.3547945 64.4273973,18.6342466 64.4273973,19.030137 L64.4273973,19.0767123 C64.4273973,19.5191781 64.869863,19.7986301 66.5931507,20.1246575 C70.7616438,20.8931507 73.5561644,22.1041096 73.5561644,25.3876712 L73.5561644,25.4342466 C73.5561644,28.8575342 70.7383562,30.9534247 66.360274,30.9534247 Z M78.4,30.6506849 L78.4,18.960274 L73.6027397,18.960274 L73.6027397,14.3493151 L88.6465753,14.3493151 L88.6465753,18.960274 L83.8493151,18.960274 L83.8493151,30.6506849 L78.4,30.6506849 Z M89.8808219,30.6506849 L89.8808219,14.3493151 L103.783562,14.3493151 L103.783562,18.8205479 L95.2369863,18.8205479 L95.2369863,20.4739726 L103.20137,20.4739726 L103.20137,24.409589 L95.2369863,24.409589 L95.2369863,26.1794521 L103.9,26.1794521 L103.9,30.6506849 L89.8808219,30.6506849 Z M105.367123,30.6506849 L105.367123,14.3493151 L110.816438,14.3493151 L110.816438,25.9931507 L118.478082,25.9931507 L118.478082,30.6506849 L105.367123,30.6506849 Z M119.665753,30.6506849 L119.665753,14.3493151 L125.115068,14.3493151 L125.115068,25.9931507 L132.776712,25.9931507 L132.776712,30.6506849 L119.665753,30.6506849 Z M132.776712,30.6506849 L139.646575,14.2328767 L145.049315,14.2328767 L151.919178,30.6506849 L146.00411,30.6506849 L145.142466,28.4616438 L139.436986,28.4616438 L138.59863,30.6506849 L132.776712,30.6506849 Z M140.810959,24.5958904 L143.791781,24.5958904 L142.30137,20.6369863 L140.810959,24.5958904 Z M152.594521,30.6506849 L152.594521,14.3493151 L160.558904,14.3493151 C163.446575,14.3493151 165.286301,15.0712329 166.427397,16.2123288 C167.405479,17.190411 167.917808,18.4013699 167.917808,20.0780822 L167.917808,20.1246575 C167.917808,22.5 166.683562,24.1534247 164.70411,25.1082192 L168.5,30.6506849 L162.282192,30.6506849 L159.208219,25.9931507 L158.043836,25.9931507 L158.043836,30.6506849 L152.594521,30.6506849 Z M158.043836,22.1041096 L160.39589,22.1041096 C161.7,22.1041096 162.491781,21.5219178 162.491781,20.5205479 L162.491781,20.4739726 C162.491781,19.4260274 161.676712,18.9136986 160.419178,18.9136986 L158.043836,18.9136986 L158.043836,22.1041096 Z M179.561644,30.7671233 L174.228767,14.3493151 L179.934247,14.3493151 L182.239726,22.1739726 L184.871233,14.3027397 L189.575342,14.3027397 L192.206849,22.1739726 L194.512329,14.3493151 L200.124658,14.3493151 L194.791781,30.7671233 L190.041096,30.7671233 L187.176712,22.6630137 L184.312329,30.7671233 L179.561644,30.7671233 Z M197.772603,30.6506849 L204.642466,14.2328767 L210.045205,14.2328767 L216.915068,30.6506849 L211,30.6506849 L210.138356,28.4616438 L204.432877,28.4616438 L203.594521,30.6506849 L197.772603,30.6506849 Z M205.806849,24.5958904 L208.787671,24.5958904 L207.29726,20.6369863 L205.806849,24.5958904 Z M219.663014,30.6506849 L219.663014,18.960274 L214.865753,18.960274 L214.865753,14.3493151 L229.909589,14.3493151 L229.909589,18.960274 L225.112329,18.960274 L225.112329,30.6506849 L219.663014,30.6506849 Z M238.526027,31 C234.008219,31 230.072603,27.6 230.072603,22.5465753 L230.072603,22.5 C230.072603,17.6328767 233.868493,14 238.735616,14 C242.321918,14 244.743836,15.7465753 246.117808,18.2383562 L241.623288,20.869863 C241.017808,19.7054795 240.156164,18.890411 238.665753,18.890411 C236.826027,18.890411 235.615068,20.4972603 235.615068,22.4534247 L235.615068,22.5 C235.615068,24.6191781 236.872603,26.109589 238.665753,26.109589 C240.20274,26.109589 241.064384,25.2712329 241.739726,24.060274 L246.234247,26.5986301 C244.860274,29.0205479 242.578082,31 238.526027,31 Z M247.282192,30.6506849 L247.282192,14.3493151 L252.731507,14.3493151 L252.731507,20.1013699 L257.715068,20.1013699 L257.715068,14.3493151 L263.164384,14.3493151 L263.164384,30.6506849 L257.715068,30.6506849 L257.715068,24.8054795 L252.731507,24.8054795 L252.731507,30.6506849 L247.282192,30.6506849 Z M265.027397,30.6506849 L265.027397,14.3493151 L278.930137,14.3493151 L278.930137,18.8205479 L270.383562,18.8205479 L270.383562,20.4739726 L278.347945,20.4739726 L278.347945,24.409589 L270.383562,24.409589 L270.383562,26.1794521 L279.046575,26.1794521 L279.046575,30.6506849 L265.027397,30.6506849 Z M280.513699,30.6506849 L280.513699,14.3493151 L288.478082,14.3493151 C291.365753,14.3493151 293.205479,15.0712329 294.346575,16.2123288 C295.324658,17.190411 295.836986,18.4013699 295.836986,20.0780822 L295.836986,20.1246575 C295.836986,22.5 294.60274,24.1534247 292.623288,25.1082192 L296.419178,30.6506849 L290.20137,30.6506849 L287.127397,25.9931507 L285.963014,25.9931507 L285.963014,30.6506849 L280.513699,30.6506849 Z M285.963014,22.1041096 L288.315068,22.1041096 C289.619178,22.1041096 290.410959,21.5219178 290.410959,20.5205479 L290.410959,20.4739726 C290.410959,19.4260274 289.59589,18.9136986 288.338356,18.9136986 L285.963014,18.9136986 L285.963014,22.1041096 Z" id="STELLAR-WATCHER" fill="#08B5E5"></path>
                <g id="searching" fill-rule="nonzero">
                    <path d="M15,28.7272767 C15,29.1288993 14.6711734,29.4545534 14.2656382,29.4545534 L4.22956566,29.4545534 L4.22956566,37.6968773 L5.27674376,37.6968773 C5.78141956,37.6968773 6.25794542,37.9155482 6.58413295,38.296959 C6.91040845,38.6783698 7.04992663,39.1797446 6.96697225,39.6728431 L6.34098776,43.3921647 C6.28108115,43.7478751 5.96993625,44 5.61753408,44 C5.5774204,44 5.53677891,43.9966894 5.49596149,43.9899812 C5.09588034,43.9239444 4.82564083,43.5492418 4.89232102,43.1530206 L5.51830551,39.4336991 C5.5345797,39.3373445 5.49094728,39.2691296 5.46358905,39.2371566 C5.43614285,39.2050965 5.37553249,39.1514307 5.27674376,39.1514307 L1.71375195,39.1514307 C1.6150512,39.1514307 1.55435287,39.2051836 1.52690667,39.2371566 C1.49946047,39.2691296 1.45600398,39.3373445 1.4721902,39.4336991 L2.09817469,43.1530206 C2.16485488,43.5491547 1.89461537,43.9239444 1.49453423,43.9899812 C1.09471698,44.055931 0.716100172,43.7883858 0.649419981,43.3921647 L0.0234354934,39.6728431 C-0.0595188871,39.1798317 0.0799992969,38.6783698 0.406274798,38.296959 C0.732550299,37.9155482 1.20898818,37.6968773 1.71366398,37.6968773 L2.76084208,37.6968773 L2.76084208,28.7272767 C2.76084208,28.3256541 3.08966867,28 3.49520387,28 L14.2656382,28 C14.6712614,28 15,28.325567 15,28.7272767 Z" id="Shape" fill="#144856"></path>
                    <path d="M30,43 C30,43.5522281 29.674998,44 29.2741795,44 L15.7258205,44 C15.325002,44 15,43.5522281 15,43 C15,42.4477719 15.325002,42 15.7258205,42 L29.2741795,42 C29.6750849,42 30,42.4477719 30,43 Z" id="Shape" fill="#84A7B7"></path>
                    <path d="M33.472256,26.1443438 L30.9445986,36.1179955 C30.5154098,37.8117489 28.972617,39 27.2026677,39 L17.7972457,39 C16.027383,39 14.4845036,37.8117489 14.0552281,36.1179955 L11.5275707,26.1443438 C11.2233093,24.9436154 12.1439774,23.7804899 13.3986228,23.7804899 L31.6012905,23.7804899 C32.8560226,23.7804899 33.7766041,24.9436154 33.472256,26.1443438 Z M22.4999567,0 C15.0441645,0 9,5.96227879 9,13.3170607 L9,15.2195101 C9,17.3208275 10.7268918,19.024409 12.8571552,19.024409 L32.1428448,19.024409 C34.2730216,19.024409 36,17.320913 36,15.2195101 L36,13.3170607 C35.9999134,5.96227879 29.9558355,0 22.4999567,0 Z" id="Shape" fill="#256277"></path>
                    <path d="M29,24 L27.3183054,30.5535507 C26.6476734,33.1668177 24.2375235,35 21.4725717,35 C18.70762,35 16.2974701,33.1667353 15.6268381,30.5535507 L15.1142057,28.5560663 C14.5204178,26.2418373 16.3169982,24 18.7656124,24 L29,24 Z" id="Shape" fill="#84A7B7"></path>
                    <path d="M42.9043681,29.6379257 C42.774292,29.8617566 42.5314072,30 42.2682747,30 L23.7317222,30 C23.3276446,30 23,29.6794331 23,29.2840843 C23,28.8887356 23.3276446,28.5681687 23.7317222,28.5681687 L40.9812746,28.5681687 L29.7347715,10.0822282 C29.5279995,9.742537 29.6419476,9.30310818 29.9893141,9.10088859 C30.3365929,8.89849749 30.7856361,9.01024139 30.9923204,9.34993256 L42.897093,28.9178937 C43.0316394,29.139066 43.0344443,29.4140949 42.9043681,29.6379257 Z" id="Shape" fill="#144856"></path>
                    <path d="M18,33.9375035 L18,34.0624965 C18,34.5802123 17.5522281,35 17,35 C16.4477719,35 16,34.5802123 16,34.0624965 L16,33.9375035 C16,33.4197877 16.4477719,33 17,33 C17.5523479,33 18,33.4197877 18,33.9375035 Z" id="Shape" fill="#FC8059"></path>
                    <path d="M20,33.9375035 L20,34.0624965 C20,34.5802123 19.5522281,35 19,35 C18.4477719,35 18,34.5802123 18,34.0624965 L18,33.9375035 C18,33.4197877 18.4477719,33 19,33 C19.5522281,33 20,33.4197877 20,33.9375035 Z" id="Shape" fill="#FFD880"></path>
                    <path d="M28,33.9375035 L28,34.0624965 C28,34.5802123 27.5522281,35 27,35 C26.4477719,35 26,34.5802123 26,34.0624965 L26,33.9375035 C26,33.4197877 26.4477719,33 27,33 C27.5523479,33 28,33.4197877 28,33.9375035 Z" id="Shape" fill="#B5E5BC"></path>
                    <path d="M19.000018,31 L15.999982,31 C15.4477008,31 15,30.5523012 15,30.0000225 L15,27.9999775 C15,27.4476988 15.4477008,27 15.999982,27 L19.000018,27 C19.5522992,27 20,27.4476988 20,27.9999775 L20,30.0000225 C20,30.5523012 19.5522992,31 19.000018,31 Z" id="Shape" fill="#CFDFE2"></path>
                    <path d="M44,28.5 C44,29.8806864 42.7166165,31 41.1333562,31 C39.5500959,31 38.2667125,29.8806864 38.2667125,28.5 C38.2667125,27.1193136 39.5500959,26 41.1333562,26 C42.7166165,26 44,27.1193136 44,28.5 Z M3.86664377,26 C2.28338348,26 1,27.1193136 1,28.5 C1,29.8806864 2.28338348,31 3.86664377,31 C5.44990407,31 6.73328755,29.8806864 6.73328755,28.5 C6.73328755,27.1193136 5.44990407,26 3.86664377,26 Z" id="Shape" fill="#256277"></path>
                    <path d="M5.81397341,29 C5.81397341,30.1045326 4.96023685,31 3.90698671,31 C2.85373656,31 2,30.1045326 2,29 C2,27.8953776 2.85373656,27 3.90698671,27 C4.96023685,27 5.81397341,27.8953776 5.81397341,29 Z M41.0930133,27 C40.0397631,27 39.1860266,27.8953776 39.1860266,29 C39.1860266,30.1045326 40.0397631,31 41.0930133,31 C42.1462634,31 43,30.1045326 43,29 C43,27.8953776 42.1462634,27 41.0930133,27 Z" id="Shape" fill="#84A7B7"></path>
                    <path d="M14,9.5 C14,7.01469848 16.2386437,5 19,5 C21.7613563,5 24,7.01477934 24,9.5 C24,11.9852207 21.7613563,14 19,14 C16.2386437,14 14,11.9852207 14,9.5 Z" id="Shape" fill="#144856"></path>
                    <path d="M15,9.5 C15,8.11923872 16.1192387,7 17.5,7 C18.8807613,7 20,8.11923872 20,9.5 C20,10.8807613 18.8807613,12 17.5,12 C16.1192387,12 15,10.8807613 15,9.5 Z" id="Shape" fill="#CFDFE2"></path>
                    <path d="M18,10.5 C18,9.67165788 18.671568,9 19.5,9 C20.328432,9 21,9.67156804 21,10.5 C21,11.328432 20.328432,12 19.5,12 C18.671568,12 18,11.3283421 18,10.5 Z" id="Shape" fill="#FFFFFF"></path>
                    <path d="M37.0710796,2.9289478 C40.9763068,6.83416876 40.9763068,13.1658633 37.0710796,17.0710843 C33.1658524,20.9763052 26.8341476,20.9763052 22.9289204,17.0710843 C19.0236932,13.1658633 19.0236932,6.83416876 22.9289204,2.9289478 C26.8341476,-0.976273151 33.1658524,-0.976358717 37.0710796,2.9289478 Z" id="Shape" fill="#84A7B7"></path>
                    <path d="M37,10 C37,13.8659787 33.8659787,17 30,17 C26.1340213,17 23,13.8659787 23,10 C23,6.13402128 26.1340213,3 30,3 C33.8659787,3 37,6.13393144 37,10 Z" id="Shape" fill="#C3E4ED"></path>
                    <path d="M36,7.86042456 L27.8604246,16 C26.669973,15.5754694 25.6425321,14.8076682 24.8987656,13.8144807 L33.8144807,4.89876557 C34.8076682,5.64245034 35.5754694,6.66997302 36,7.86042456 Z M32.1395754,4 L24,12.1395754 C24.106521,12.4384555 24.2345423,12.7271984 24.3826743,13.0035153 L33.0035153,4.38267433 C32.7271167,4.23454233 32.4384555,4.10652097 32.1395754,4 Z" id="Shape" fill="#DCF3F9"></path>
                    <path d="M30,5 C31.1046224,5 32,5.89537757 32,7 C32,8.10462243 31.1046224,9 30,9 C28.8953776,9 28,8.10462243 28,7 C28,5.89537757 28.8955573,5 30,5 Z" id="Shape" fill="#FFFFFF"></path>
                </g>
            </g>
        </g>
    </g>
</svg>
