<?xml version="1.0" encoding="UTF-8"?>
<svg width="225px" height="225px" viewBox="0 0 225 225" version="1.1" xmlns="http://www.w3.org/2000/svg" xmlns:xlink="http://www.w3.org/1999/xlink">
    <!-- Generator: Sketch 43.2 (39069) - http://www.bohemiancoding.com/sketch -->
    <title>Artboard</title>
    <desc>Created with Sketch.</desc>
    <defs>
        <path d="M0,0 L225,0 L225,225 L0,225 L0,0 Z M119.008264,203 C165.619835,203 195.619835,180.68595 195.619835,144.239669 L195.619835,143.743802 C195.619835,108.785124 165.867769,95.892562 121.487603,87.7107438 C103.140496,84.2396694 98.4297521,81.2644628 98.4297521,76.553719 L98.4297521,76.0578512 C98.4297521,71.8429752 102.396694,68.8677686 111.07438,68.8677686 C127.190083,68.8677686 146.77686,74.0743802 163.140496,85.9752066 L191.404959,46.8016529 C171.322314,30.9338843 146.528926,23 113.057851,23 C65.2066116,23 39.4214876,48.5371901 39.4214876,81.5123967 L39.4214876,82.0082645 C39.4214876,118.702479 73.6363636,129.859504 112.561983,137.793388 C131.157025,141.512397 136.61157,144.239669 136.61157,149.198347 L136.61157,149.694215 C136.61157,154.404959 132.14876,157.132231 121.735537,157.132231 C101.404959,157.132231 79.8347107,151.181818 60.9917355,136.801653 L30,173.743802 C52.0661157,193.082645 83.8016529,203 119.008264,203 Z" id="path-1"></path>
    </defs>
    <g id="Page-1" stroke="none" stroke-width="1" fill="none" fill-rule="evenodd">
        <g id="Artboard">
            <mask id="mask-2" fill="white">
                <use xlink:href="#path-1"></use>
            </mask>
            <use id="Combined-Shape" fill="#000000" xlink:href="#path-1"></use>
        </g>
    </g>
</svg>