<svg xmlns="http://www.w3.org/2000/svg" width="369" height="137" viewBox="0 0 369 137">
  <g fill="none" fill-rule="evenodd">
    <path fill="#08B5E5" d="M12.924,136.208 C7.812,136.208 3.204,134.768 0,131.96 L4.5,126.596 C7.236,128.684 10.368,129.548 13.32,129.548 C14.832,129.548 15.48,129.152 15.48,128.468 L15.48,128.396 C15.48,127.676 14.688,127.28 11.988,126.74 C6.336,125.588 1.368,123.968 1.368,118.64 L1.368,118.568 C1.368,113.78 5.112,110.072 12.06,110.072 C16.92,110.072 20.52,111.224 23.436,113.528 L19.332,119.216 C16.956,117.488 14.112,116.732 11.772,116.732 C10.512,116.732 9.936,117.164 9.936,117.776 L9.936,117.848 C9.936,118.532 10.62,118.964 13.284,119.468 C19.728,120.656 24.048,122.528 24.048,127.604 L24.048,127.676 C24.048,132.968 19.692,136.208 12.924,136.208 Z M31.536,135.74 L31.536,117.668 L24.12,117.668 L24.12,110.54 L47.376,110.54 L47.376,117.668 L39.96,117.668 L39.96,135.74 L31.536,135.74 Z M49.284,135.74 L49.284,110.54 L70.776,110.54 L70.776,117.452 L57.564,117.452 L57.564,120.008 L69.876,120.008 L69.876,126.092 L57.564,126.092 L57.564,128.828 L70.956,128.828 L70.956,135.74 L49.284,135.74 Z M73.224,135.74 L73.224,110.54 L81.648,110.54 L81.648,128.54 L93.492,128.54 L93.492,135.74 L73.224,135.74 Z M95.328,135.74 L95.328,110.54 L103.752,110.54 L103.752,128.54 L115.596,128.54 L115.596,135.74 L95.328,135.74 Z M115.596,135.74 L126.216,110.36 L134.568,110.36 L145.188,135.74 L136.044,135.74 L134.712,132.356 L125.892,132.356 L124.596,135.74 L115.596,135.74 Z M128.016,126.38 L132.624,126.38 L130.32,120.26 L128.016,126.38 Z M146.232,135.74 L146.232,110.54 L158.544,110.54 C163.008,110.54 165.852,111.656 167.616,113.42 C169.128,114.932 169.92,116.804 169.92,119.396 L169.92,119.468 C169.92,123.14 168.012,125.696 164.952,127.172 L170.82,135.74 L161.208,135.74 L156.456,128.54 L154.656,128.54 L154.656,135.74 L146.232,135.74 Z M154.656,122.528 L158.292,122.528 C160.308,122.528 161.532,121.628 161.532,120.08 L161.532,120.008 C161.532,118.388 160.272,117.596 158.328,117.596 L154.656,117.596 L154.656,122.528 Z M187.92,135.92 L179.676,110.54 L188.496,110.54 L192.06,122.636 L196.128,110.468 L203.4,110.468 L207.468,122.636 L211.032,110.54 L219.708,110.54 L211.464,135.92 L204.12,135.92 L199.692,123.392 L195.264,135.92 L187.92,135.92 Z M216.072,135.74 L226.692,110.36 L235.044,110.36 L245.664,135.74 L236.52,135.74 L235.188,132.356 L226.368,132.356 L225.072,135.74 L216.072,135.74 Z M228.492,126.38 L233.1,126.38 L230.796,120.26 L228.492,126.38 Z M249.912,135.74 L249.912,117.668 L242.496,117.668 L242.496,110.54 L265.752,110.54 L265.752,117.668 L258.336,117.668 L258.336,135.74 L249.912,135.74 Z M279.072,136.28 C272.088,136.28 266.004,131.024 266.004,123.212 L266.004,123.14 C266.004,115.616 271.872,110 279.396,110 C284.94,110 288.684,112.7 290.808,116.552 L283.86,120.62 C282.924,118.82 281.592,117.56 279.288,117.56 C276.444,117.56 274.572,120.044 274.572,123.068 L274.572,123.14 C274.572,126.416 276.516,128.72 279.288,128.72 C281.664,128.72 282.996,127.424 284.04,125.552 L290.988,129.476 C288.864,133.22 285.336,136.28 279.072,136.28 Z M292.608,135.74 L292.608,110.54 L301.032,110.54 L301.032,119.432 L308.736,119.432 L308.736,110.54 L317.16,110.54 L317.16,135.74 L308.736,135.74 L308.736,126.704 L301.032,126.704 L301.032,135.74 L292.608,135.74 Z M320.04,135.74 L320.04,110.54 L341.532,110.54 L341.532,117.452 L328.32,117.452 L328.32,120.008 L340.632,120.008 L340.632,126.092 L328.32,126.092 L328.32,128.828 L341.712,128.828 L341.712,135.74 L320.04,135.74 Z M343.98,135.74 L343.98,110.54 L356.292,110.54 C360.756,110.54 363.6,111.656 365.364,113.42 C366.876,114.932 367.668,116.804 367.668,119.396 L367.668,119.468 C367.668,123.14 365.76,125.696 362.7,127.172 L368.568,135.74 L358.956,135.74 L354.204,128.54 L352.404,128.54 L352.404,135.74 L343.98,135.74 Z M352.404,122.528 L356.04,122.528 C358.056,122.528 359.28,121.628 359.28,120.08 L359.28,120.008 C359.28,118.388 358.02,117.596 356.076,117.596 L352.404,117.596 L352.404,122.528 Z"/>
    <g fill-rule="nonzero" transform="translate(144)">
      <path fill="#144856" d="M27,53.318189 C27,54.04613 26.4081121,54.636378 25.6781488,54.636378 L7.61321819,54.636378 L7.61321819,69.5755901 L9.49813877,69.5755901 C10.4065552,69.5755901 11.2643017,69.9719311 11.8514393,70.6632381 C12.4387352,71.3545452 12.6898679,72.2632871 12.5405501,73.1570281 L11.413778,79.8982984 C11.3059461,80.5430236 10.7458853,81 10.1115613,81 C10.0393567,81 9.96620204,80.9939996 9.89273068,80.981841 C9.17258461,80.8621491 8.68615349,80.1830007 8.80617784,79.4648499 L9.93294992,72.7235795 C9.96224346,72.5489369 9.8837051,72.4252974 9.83446028,72.3673464 C9.78505712,72.3092374 9.67595848,72.2119681 9.49813877,72.2119681 L3.08475352,72.2119681 C2.90709215,72.2119681 2.79783516,72.3093953 2.748432,72.3673464 C2.69902884,72.4252974 2.62080717,72.5489369 2.64994237,72.7235795 L3.77671445,79.4648499 C3.89673879,80.1828428 3.41030767,80.8621491 2.69016161,80.981841 C1.97049057,81.1013749 1.28898031,80.6164493 1.16895597,79.8982984 L0.0421838882,73.1570281 C-0.107133997,72.263445 0.143998734,71.3545452 0.731294636,70.6632381 C1.31859054,69.9719311 2.17617873,69.5755901 3.08459517,69.5755901 L4.96951575,69.5755901 L4.96951575,53.318189 C4.96951575,52.590248 5.56140361,52 6.29136697,52 L25.6781488,52 C26.4082705,52 27,52.5900901 27,53.318189 Z"/>
      <path fill="#84A7B7" d="M54,79.5 C54,80.3283421 53.4149963,81 52.6935231,81 L28.3064769,81 C27.5850037,81 27,80.3283421 27,79.5 C27,78.6716579 27.5850037,78 28.3064769,78 L52.6935231,78 C53.4151529,78 54,78.6716579 54,79.5 Z"/>
      <path fill="#256277" d="M60.4126127,48.2664808 L55.8253827,66.6793763 C55.0464844,69.8063057 52.2466012,72 49.034471,72 L31.9653717,72 C28.7533988,72 25.9533584,69.8063057 25.1743028,66.6793763 L20.5870728,48.2664808 C20.0348946,46.0497515 21.7057368,43.9024429 23.9826859,43.9024429 L57.0171569,43.9024429 C59.2942632,43.9024429 60.9649482,46.0497515 60.4126127,48.2664808 Z M40.4999214,0 C26.9690393,0 16,11.0072839 16,24.5853428 L16,28.0975571 C16,31.9769124 19.1339888,35.1219859 23.0000225,35.1219859 L57.9999775,35.1219859 C61.865854,35.1219859 65,31.9770701 65,28.0975571 L65,24.5853428 C64.9998428,11.0072839 54.0309607,0 40.4999214,0 Z"/>
      <path fill="#84A7B7" d="M54,44 L50.8768529,56.5113241 C49.6313934,61.5002882 45.1554007,65 40.0204904,65 C34.8855801,65 30.4095873,61.500131 29.1641279,56.5113241 L28.2120963,52.6979448 C27.1093473,48.2798712 30.4458537,44 34.9932802,44 L54,44 Z"/>
      <path fill="#144856" d="M78.8278626,55.3275764 C78.5937255,55.7432622 78.1565329,56 77.6828945,56 L44.3170999,56 C43.5897604,56 43,55.4046614 43,54.6704424 C43,53.9362233 43.5897604,53.3408847 44.3170999,53.3408847 L75.3662943,53.3408847 L55.1225888,19.0098523 C54.7503992,18.3789973 54.9555058,17.5629152 55.5807653,17.1873645 C56.2058671,16.8114953 57.0141449,17.0190197 57.3861767,17.6498748 L78.8147673,53.9903739 C79.0569509,54.4011225 79.0619997,54.9118905 78.8278626,55.3275764 Z"/>
      <path fill="#FC8059" d="M32,61.4062553 L32,61.5937447 C32,62.3703184 31.3283421,63 30.5,63 C29.6716579,63 29,62.3703184 29,61.5937447 L29,61.4062553 C29,60.6296816 29.6716579,60 30.5,60 C31.3285218,60 32,60.6296816 32,61.4062553 Z"/>
      <path fill="#FFD880" d="M37,61.4062553 L37,61.5937447 C37,62.3703184 36.3283421,63 35.5,63 C34.6716579,63 34,62.3703184 34,61.5937447 L34,61.4062553 C34,60.6296816 34.6716579,60 35.5,60 C36.3283421,60 37,60.6296816 37,61.4062553 Z"/>
      <path fill="#B5E5BC" d="M51,61.4062553 L51,61.5937447 C51,62.3703184 50.3283421,63 49.5,63 C48.6716579,63 48,62.3703184 48,61.5937447 L48,61.4062553 C48,60.6296816 48.6716579,60 49.5,60 C50.3285218,60 51,60.6296816 51,61.4062553 Z"/>
      <path fill="#CFDFE2" d="M34.2000323,56 L28.7999677,56 C27.8058615,56 27,55.216527 27,54.2500393 L27,50.7499607 C27,49.783473 27.8058615,49 28.7999677,49 L34.2000323,49 C35.1941385,49 36,49.783473 36,50.7499607 L36,54.2500393 C36,55.216527 35.1941385,56 34.2000323,56 Z"/>
      <path fill="#256277" d="M81,52 C81,54.7613728 78.6421559,57 75.7333754,57 C72.8245949,57 70.4667508,54.7613728 70.4667508,52 C70.4667508,49.2386272 72.8245949,47 75.7333754,47 C78.6421559,47 81,49.2386272 81,52 Z M7.26662461,47 C4.35784407,47 2,49.2386272 2,52 C2,54.7613728 4.35784407,57 7.26662461,57 C10.1754051,57 12.5332492,54.7613728 12.5332492,52 C12.5332492,49.2386272 10.1754051,47 7.26662461,47 Z"/>
      <path fill="#84A7B7" d="M10.0698044,52.5 C10.0698044,54.432932 8.48726831,56 6.53490219,56 C4.58253606,56 3,54.432932 3,52.5 C3,50.5669107 4.58253606,49 6.53490219,49 C8.48726831,49 10.0698044,50.5669107 10.0698044,52.5 Z M75.4650978,49 C73.5127317,49 71.9301956,50.5669107 71.9301956,52.5 C71.9301956,54.432932 73.5127317,56 75.4650978,56 C77.4174639,56 79,54.432932 79,52.5 C79,50.5669107 77.4174639,49 75.4650978,49 Z"/>
      <path fill="#144856" d="M25,18.5 C25,13.8055416 29.0295587,10 34,10 C38.9704413,10 43,13.8056943 43,18.5 C43,23.1943057 38.9704413,27 34,27 C29.0295587,27 25,23.1943057 25,18.5 Z"/>
      <path fill="#CFDFE2" d="M28,18 C28,15.2384774 30.2384774,13 33,13 C35.7615226,13 38,15.2384774 38,18 C38,20.7615226 35.7615226,23 33,23 C30.2384774,23 28,20.7615226 28,18 Z"/>
      <path fill="#FFF" d="M34,18.5 C34,17.1194298 35.1192801,16 36.5,16 C37.8807199,16 39,17.1192801 39,18.5 C39,19.8807199 37.8807199,21 36.5,21 C35.1192801,21 34,19.8805702 34,18.5 Z"/>
      <path fill="#84A7B7" d="M68.5814972,5.41855344 C75.8061676,12.6432122 75.8061676,24.3568472 68.5814972,31.5815059 C61.3568269,38.8061647 49.6431731,38.8061647 42.4185028,31.5815059 C35.1938324,24.3568472 35.1938324,12.6432122 42.4185028,5.41855344 C49.6431731,-1.80610533 61.3568269,-1.80626363 68.5814972,5.41855344 Z"/>
      <path fill="#C3E4ED" d="M68,18.5 C68,25.4035334 62.4035334,31 55.5,31 C48.5964666,31 43,25.4035334 43,18.5 C43,11.5964666 48.5964666,6 55.5,6 C62.4035334,6 68,11.5963061 68,18.5 Z"/>
      <path fill="#DCF3F9" d="M67,14.3991471 L51.3991471,30 C49.1174483,29.1863163 47.1481865,27.7146974 45.722634,25.8110881 L62.8110881,8.722634 C64.7146974,10.1480298 66.1863163,12.1174483 67,14.3991471 Z M59.6008529,7 L44,22.6008529 C44.2041652,23.1737063 44.4495395,23.7271303 44.7334591,24.2567376 L61.2567376,7.73345914 C60.7269736,7.44953947 60.1737063,7.20416519 59.6008529,7 Z"/>
      <path fill="#FFF" d="M55.5,9 C57.4330893,9 59,10.5669107 59,12.5 C59,14.4330893 57.4330893,16 55.5,16 C53.5669107,16 52,14.4330893 52,12.5 C52,10.5669107 53.5672252,9 55.5,9 Z"/>
    </g>
  </g>
</svg>
