<svg xmlns="http://www.w3.org/2000/svg" width="37" height="37" viewBox="0 0 37 37">
  <g fill="none" fill-rule="evenodd">
    <circle cx="18.5" cy="18.5" r="18.5" fill="#08B5E5"/>
    <path fill="#FFF" d="M18.752,27.16 C15.296,27.16 12.848,26.032 11,24.136 L14.336,20.704 C15.584,21.88 16.904,22.528 18.296,22.528 C19.544,22.528 20.216,21.976 20.216,21.184 L20.216,21.136 C20.216,20.32 19.496,19.792 18.008,19.792 L15.632,19.792 L14.888,17.296 L18.584,14.368 L12.344,14.368 L12.344,10 L25.256,10 L25.256,13.864 L21.488,16.696 C24.008,17.368 25.64,18.832 25.64,21.472 L25.64,21.52 C25.64,25.144 22.472,27.16 18.752,27.16 Z"/>
  </g>
</svg>
